<?xml version="1.0" encoding="UTF-8" standalone="no"?>
<!DOCTYPE svg PUBLIC "-//W3C//DTD SVG 1.1//EN"
 "http://www.w3.org/Graphics/SVG/1.1/DTD/svg11.dtd">
<!-- Generated by graphviz version 2.44.1 (20200629.0846)
 -->
<!-- Title: Tree Pages: 1 -->
<svg width="1330pt" height="433pt"
 viewBox="0.00 0.00 1329.50 433.00" xmlns="http://www.w3.org/2000/svg" xmlns:xlink="http://www.w3.org/1999/xlink">
<g id="graph0" class="graph" transform="scale(1 1) rotate(0) translate(4 429)">
<title>Tree</title>
<polygon fill="white" stroke="transparent" points="-4,4 -4,-429 1325.5,-429 1325.5,4 -4,4"/>
<!-- 0 -->
<g id="node1" class="node">
<title>0</title>
<polygon fill="none" stroke="black" points="730,-425 505,-425 505,-342 730,-342 730,-425"/>
<text text-anchor="middle" x="617.5" y="-409.8" font-family="Times New Roman,serif" font-size="14.00">Payment_of_Min_Amount &lt;= &#45;0.299</text>
<text text-anchor="middle" x="617.5" y="-394.8" font-family="Times New Roman,serif" font-size="14.00">gini = 0.601</text>
<text text-anchor="middle" x="617.5" y="-379.8" font-family="Times New Roman,serif" font-size="14.00">samples = 78239</text>
<text text-anchor="middle" x="617.5" y="-364.8" font-family="Times New Roman,serif" font-size="14.00">value = [22656, 41641, 13942]</text>
<text text-anchor="middle" x="617.5" y="-349.8" font-family="Times New Roman,serif" font-size="14.00">class = 1</text>
</g>
<!-- 1 -->
<g id="node2" class="node">
<title>1</title>
<polygon fill="none" stroke="black" points="605,-306 426,-306 426,-223 605,-223 605,-306"/>
<text text-anchor="middle" x="515.5" y="-290.8" font-family="Times New Roman,serif" font-size="14.00">Credit_Mix &lt;= 0.324</text>
<text text-anchor="middle" x="515.5" y="-275.8" font-family="Times New Roman,serif" font-size="14.00">gini = 0.601</text>
<text text-anchor="middle" x="515.5" y="-260.8" font-family="Times New Roman,serif" font-size="14.00">samples = 27901</text>
<text text-anchor="middle" x="515.5" y="-245.8" font-family="Times New Roman,serif" font-size="14.00">value = [3692, 13489, 10720]</text>
<text text-anchor="middle" x="515.5" y="-230.8" font-family="Times New Roman,serif" font-size="14.00">class = 1</text>
</g>
<!-- 0&#45;&gt;1 -->
<g id="edge1" class="edge">
<title>0&#45;&gt;1</title>
<path fill="none" stroke="black" d="M582.11,-341.91C574.2,-332.83 565.73,-323.12 557.58,-313.77"/>
<polygon fill="black" stroke="black" points="560.04,-311.26 550.83,-306.02 554.76,-315.86 560.04,-311.26"/>
<text text-anchor="middle" x="549.12" y="-327.26" font-family="Times New Roman,serif" font-size="14.00">True</text>
</g>
<!-- 8 -->
<g id="node9" class="node">
<title>8</title>
<polygon fill="none" stroke="black" points="862,-306 683,-306 683,-223 862,-223 862,-306"/>
<text text-anchor="middle" x="772.5" y="-290.8" font-family="Times New Roman,serif" font-size="14.00">Credit_Mix &lt;= &#45;1.001</text>
<text text-anchor="middle" x="772.5" y="-275.8" font-family="Times New Roman,serif" font-size="14.00">gini = 0.541</text>
<text text-anchor="middle" x="772.5" y="-260.8" font-family="Times New Roman,serif" font-size="14.00">samples = 50338</text>
<text text-anchor="middle" x="772.5" y="-245.8" font-family="Times New Roman,serif" font-size="14.00">value = [18964, 28152, 3222]</text>
<text text-anchor="middle" x="772.5" y="-230.8" font-family="Times New Roman,serif" font-size="14.00">class = 1</text>
</g>
<!-- 0&#45;&gt;8 -->
<g id="edge8" class="edge">
<title>0&#45;&gt;8</title>
<path fill="none" stroke="black" d="M671.28,-341.91C684.02,-332.29 697.71,-321.95 710.78,-312.09"/>
<polygon fill="black" stroke="black" points="712.95,-314.84 718.82,-306.02 708.73,-309.25 712.95,-314.84"/>
<text text-anchor="middle" x="715.36" y="-327.08" font-family="Times New Roman,serif" font-size="14.00">False</text>
</g>
<!-- 2 -->
<g id="node3" class="node">
<title>2</title>
<polygon fill="none" stroke="black" points="301,-187 98,-187 98,-104 301,-104 301,-187"/>
<text text-anchor="middle" x="199.5" y="-171.8" font-family="Times New Roman,serif" font-size="14.00">Monthly_Inhand_Salary &lt;= &#45;1.55</text>
<text text-anchor="middle" x="199.5" y="-156.8" font-family="Times New Roman,serif" font-size="14.00">gini = 0.238</text>
<text text-anchor="middle" x="199.5" y="-141.8" font-family="Times New Roman,serif" font-size="14.00">samples = 5579</text>
<text text-anchor="middle" x="199.5" y="-126.8" font-family="Times New Roman,serif" font-size="14.00">value = [335, 4841, 403]</text>
<text text-anchor="middle" x="199.5" y="-111.8" font-family="Times New Roman,serif" font-size="14.00">class = 1</text>
</g>
<!-- 1&#45;&gt;2 -->
<g id="edge2" class="edge">
<title>1&#45;&gt;2</title>
<path fill="none" stroke="black" d="M425.79,-230.29C389.96,-217.02 348.33,-201.61 310.62,-187.64"/>
<polygon fill="black" stroke="black" points="311.71,-184.32 301.12,-184.13 309.28,-190.88 311.71,-184.32"/>
</g>
<!-- 5 -->
<g id="node6" class="node">
<title>5</title>
<polygon fill="none" stroke="black" points="616,-187 415,-187 415,-104 616,-104 616,-187"/>
<text text-anchor="middle" x="515.5" y="-171.8" font-family="Times New Roman,serif" font-size="14.00">Total_EMI_per_month &lt;= 2.364</text>
<text text-anchor="middle" x="515.5" y="-156.8" font-family="Times New Roman,serif" font-size="14.00">gini = 0.614</text>
<text text-anchor="middle" x="515.5" y="-141.8" font-family="Times New Roman,serif" font-size="14.00">samples = 22322</text>
<text text-anchor="middle" x="515.5" y="-126.8" font-family="Times New Roman,serif" font-size="14.00">value = [3357, 8648, 10317]</text>
<text text-anchor="middle" x="515.5" y="-111.8" font-family="Times New Roman,serif" font-size="14.00">class = 2</text>
</g>
<!-- 1&#45;&gt;5 -->
<g id="edge5" class="edge">
<title>1&#45;&gt;5</title>
<path fill="none" stroke="black" d="M515.5,-222.91C515.5,-214.65 515.5,-205.86 515.5,-197.3"/>
<polygon fill="black" stroke="black" points="519,-197.02 515.5,-187.02 512,-197.02 519,-197.02"/>
</g>
<!-- 3 -->
<g id="node4" class="node">
<title>3</title>
<polygon fill="none" stroke="black" points="105,-68 0,-68 0,0 105,0 105,-68"/>
<text text-anchor="middle" x="52.5" y="-52.8" font-family="Times New Roman,serif" font-size="14.00">gini = 0.48</text>
<text text-anchor="middle" x="52.5" y="-37.8" font-family="Times New Roman,serif" font-size="14.00">samples = 5</text>
<text text-anchor="middle" x="52.5" y="-22.8" font-family="Times New Roman,serif" font-size="14.00">value = [2, 0, 3]</text>
<text text-anchor="middle" x="52.5" y="-7.8" font-family="Times New Roman,serif" font-size="14.00">class = 2</text>
</g>
<!-- 2&#45;&gt;3 -->
<g id="edge3" class="edge">
<title>2&#45;&gt;3</title>
<path fill="none" stroke="black" d="M144.76,-103.73C131.91,-94.15 118.23,-83.96 105.45,-74.44"/>
<polygon fill="black" stroke="black" points="107.31,-71.47 97.2,-68.3 103.13,-77.08 107.31,-71.47"/>
</g>
<!-- 4 -->
<g id="node5" class="node">
<title>4</title>
<polygon fill="none" stroke="black" points="275.5,-68 123.5,-68 123.5,0 275.5,0 275.5,-68"/>
<text text-anchor="middle" x="199.5" y="-52.8" font-family="Times New Roman,serif" font-size="14.00">gini = 0.237</text>
<text text-anchor="middle" x="199.5" y="-37.8" font-family="Times New Roman,serif" font-size="14.00">samples = 5574</text>
<text text-anchor="middle" x="199.5" y="-22.8" font-family="Times New Roman,serif" font-size="14.00">value = [333, 4841, 400]</text>
<text text-anchor="middle" x="199.5" y="-7.8" font-family="Times New Roman,serif" font-size="14.00">class = 1</text>
</g>
<!-- 2&#45;&gt;4 -->
<g id="edge4" class="edge">
<title>2&#45;&gt;4</title>
<path fill="none" stroke="black" d="M199.5,-103.73C199.5,-95.52 199.5,-86.86 199.5,-78.56"/>
<polygon fill="black" stroke="black" points="203,-78.3 199.5,-68.3 196,-78.3 203,-78.3"/>
</g>
<!-- 6 -->
<g id="node7" class="node">
<title>6</title>
<polygon fill="none" stroke="black" points="467,-68 294,-68 294,0 467,0 467,-68"/>
<text text-anchor="middle" x="380.5" y="-52.8" font-family="Times New Roman,serif" font-size="14.00">gini = 0.613</text>
<text text-anchor="middle" x="380.5" y="-37.8" font-family="Times New Roman,serif" font-size="14.00">samples = 21594</text>
<text text-anchor="middle" x="380.5" y="-22.8" font-family="Times New Roman,serif" font-size="14.00">value = [3218, 8334, 10042]</text>
<text text-anchor="middle" x="380.5" y="-7.8" font-family="Times New Roman,serif" font-size="14.00">class = 2</text>
</g>
<!-- 5&#45;&gt;6 -->
<g id="edge6" class="edge">
<title>5&#45;&gt;6</title>
<path fill="none" stroke="black" d="M465.23,-103.73C453.54,-94.24 441.1,-84.16 429.46,-74.72"/>
<polygon fill="black" stroke="black" points="431.53,-71.88 421.55,-68.3 427.12,-77.32 431.53,-71.88"/>
</g>
<!-- 7 -->
<g id="node8" class="node">
<title>7</title>
<polygon fill="none" stroke="black" points="631.5,-68 485.5,-68 485.5,0 631.5,0 631.5,-68"/>
<text text-anchor="middle" x="558.5" y="-52.8" font-family="Times New Roman,serif" font-size="14.00">gini = 0.635</text>
<text text-anchor="middle" x="558.5" y="-37.8" font-family="Times New Roman,serif" font-size="14.00">samples = 728</text>
<text text-anchor="middle" x="558.5" y="-22.8" font-family="Times New Roman,serif" font-size="14.00">value = [139, 314, 275]</text>
<text text-anchor="middle" x="558.5" y="-7.8" font-family="Times New Roman,serif" font-size="14.00">class = 1</text>
</g>
<!-- 5&#45;&gt;7 -->
<g id="edge7" class="edge">
<title>5&#45;&gt;7</title>
<path fill="none" stroke="black" d="M531.51,-103.73C534.84,-95.24 538.36,-86.28 541.72,-77.73"/>
<polygon fill="black" stroke="black" points="545.03,-78.89 545.42,-68.3 538.51,-76.33 545.03,-78.89"/>
</g>
<!-- 9 -->
<g id="node10" class="node">
<title>9</title>
<polygon fill="none" stroke="black" points="859,-187 686,-187 686,-104 859,-104 859,-187"/>
<text text-anchor="middle" x="772.5" y="-171.8" font-family="Times New Roman,serif" font-size="14.00">Outstanding_Debt &lt;= 3.485</text>
<text text-anchor="middle" x="772.5" y="-156.8" font-family="Times New Roman,serif" font-size="14.00">gini = 0.492</text>
<text text-anchor="middle" x="772.5" y="-141.8" font-family="Times New Roman,serif" font-size="14.00">samples = 14839</text>
<text text-anchor="middle" x="772.5" y="-126.8" font-family="Times New Roman,serif" font-size="14.00">value = [8893, 5728, 218]</text>
<text text-anchor="middle" x="772.5" y="-111.8" font-family="Times New Roman,serif" font-size="14.00">class = 0</text>
</g>
<!-- 8&#45;&gt;9 -->
<g id="edge9" class="edge">
<title>8&#45;&gt;9</title>
<path fill="none" stroke="black" d="M772.5,-222.91C772.5,-214.65 772.5,-205.86 772.5,-197.3"/>
<polygon fill="black" stroke="black" points="776,-197.02 772.5,-187.02 769,-197.02 776,-197.02"/>
</g>
<!-- 12 -->
<g id="node13" class="node">
<title>12</title>
<polygon fill="none" stroke="black" points="1140,-187 961,-187 961,-104 1140,-104 1140,-187"/>
<text text-anchor="middle" x="1050.5" y="-171.8" font-family="Times New Roman,serif" font-size="14.00">Credit_Mix &lt;= 0.324</text>
<text text-anchor="middle" x="1050.5" y="-156.8" font-family="Times New Roman,serif" font-size="14.00">gini = 0.513</text>
<text text-anchor="middle" x="1050.5" y="-141.8" font-family="Times New Roman,serif" font-size="14.00">samples = 35499</text>
<text text-anchor="middle" x="1050.5" y="-126.8" font-family="Times New Roman,serif" font-size="14.00">value = [10071, 22424, 3004]</text>
<text text-anchor="middle" x="1050.5" y="-111.8" font-family="Times New Roman,serif" font-size="14.00">class = 1</text>
</g>
<!-- 8&#45;&gt;12 -->
<g id="edge12" class="edge">
<title>8&#45;&gt;12</title>
<path fill="none" stroke="black" d="M862.37,-225.68C890.86,-213.69 922.51,-200.37 951.59,-188.13"/>
<polygon fill="black" stroke="black" points="953.08,-191.3 960.93,-184.19 950.36,-184.85 953.08,-191.3"/>
</g>
<!-- 10 -->
<g id="node11" class="node">
<title>10</title>
<polygon fill="none" stroke="black" points="809,-68 650,-68 650,0 809,0 809,-68"/>
<text text-anchor="middle" x="729.5" y="-52.8" font-family="Times New Roman,serif" font-size="14.00">gini = 0.491</text>
<text text-anchor="middle" x="729.5" y="-37.8" font-family="Times New Roman,serif" font-size="14.00">samples = 14790</text>
<text text-anchor="middle" x="729.5" y="-22.8" font-family="Times New Roman,serif" font-size="14.00">value = [8883, 5690, 217]</text>
<text text-anchor="middle" x="729.5" y="-7.8" font-family="Times New Roman,serif" font-size="14.00">class = 0</text>
</g>
<!-- 9&#45;&gt;10 -->
<g id="edge10" class="edge">
<title>9&#45;&gt;10</title>
<path fill="none" stroke="black" d="M756.49,-103.73C753.16,-95.24 749.64,-86.28 746.28,-77.73"/>
<polygon fill="black" stroke="black" points="749.49,-76.33 742.58,-68.3 742.97,-78.89 749.49,-76.33"/>
</g>
<!-- 11 -->
<g id="node12" class="node">
<title>11</title>
<polygon fill="none" stroke="black" points="946,-68 827,-68 827,0 946,0 946,-68"/>
<text text-anchor="middle" x="886.5" y="-52.8" font-family="Times New Roman,serif" font-size="14.00">gini = 0.357</text>
<text text-anchor="middle" x="886.5" y="-37.8" font-family="Times New Roman,serif" font-size="14.00">samples = 49</text>
<text text-anchor="middle" x="886.5" y="-22.8" font-family="Times New Roman,serif" font-size="14.00">value = [10, 38, 1]</text>
<text text-anchor="middle" x="886.5" y="-7.8" font-family="Times New Roman,serif" font-size="14.00">class = 1</text>
</g>
<!-- 9&#45;&gt;11 -->
<g id="edge11" class="edge">
<title>9&#45;&gt;11</title>
<path fill="none" stroke="black" d="M814.95,-103.73C824.63,-94.42 834.92,-84.54 844.58,-75.26"/>
<polygon fill="black" stroke="black" points="847.04,-77.75 851.83,-68.3 842.2,-72.7 847.04,-77.75"/>
</g>
<!-- 13 -->
<g id="node14" class="node">
<title>13</title>
<polygon fill="none" stroke="black" points="1137,-68 964,-68 964,0 1137,0 1137,-68"/>
<text text-anchor="middle" x="1050.5" y="-52.8" font-family="Times New Roman,serif" font-size="14.00">gini = 0.452</text>
<text text-anchor="middle" x="1050.5" y="-37.8" font-family="Times New Roman,serif" font-size="14.00">samples = 23035</text>
<text text-anchor="middle" x="1050.5" y="-22.8" font-family="Times New Roman,serif" font-size="14.00">value = [5842, 15980, 1213]</text>
<text text-anchor="middle" x="1050.5" y="-7.8" font-family="Times New Roman,serif" font-size="14.00">class = 1</text>
</g>
<!-- 12&#45;&gt;13 -->
<g id="edge13" class="edge">
<title>12&#45;&gt;13</title>
<path fill="none" stroke="black" d="M1050.5,-103.73C1050.5,-95.52 1050.5,-86.86 1050.5,-78.56"/>
<polygon fill="black" stroke="black" points="1054,-78.3 1050.5,-68.3 1047,-78.3 1054,-78.3"/>
</g>
<!-- 14 -->
<g id="node15" class="node">
<title>14</title>
<polygon fill="none" stroke="black" points="1321.5,-68 1155.5,-68 1155.5,0 1321.5,0 1321.5,-68"/>
<text text-anchor="middle" x="1238.5" y="-52.8" font-family="Times New Roman,serif" font-size="14.00">gini = 0.597</text>
<text text-anchor="middle" x="1238.5" y="-37.8" font-family="Times New Roman,serif" font-size="14.00">samples = 12464</text>
<text text-anchor="middle" x="1238.5" y="-22.8" font-family="Times New Roman,serif" font-size="14.00">value = [4229, 6444, 1791]</text>
<text text-anchor="middle" x="1238.5" y="-7.8" font-family="Times New Roman,serif" font-size="14.00">class = 1</text>
</g>
<!-- 12&#45;&gt;14 -->
<g id="edge14" class="edge">
<title>12&#45;&gt;14</title>
<path fill="none" stroke="black" d="M1120.24,-103.88C1137.5,-93.83 1155.94,-83.09 1172.99,-73.16"/>
<polygon fill="black" stroke="black" points="1174.89,-76.1 1181.77,-68.04 1171.37,-70.05 1174.89,-76.1"/>
</g>
</g>
</svg>
