<?xml version="1.0" encoding="UTF-8" standalone="no"?>
<!DOCTYPE svg PUBLIC "-//W3C//DTD SVG 1.1//EN"
 "http://www.w3.org/Graphics/SVG/1.1/DTD/svg11.dtd">
<!-- Generated by graphviz version 2.44.1 (20200629.0846)
 -->
<!-- Title: Tree Pages: 1 -->
<svg width="810pt" height="314pt"
 viewBox="0.00 0.00 809.50 314.00" xmlns="http://www.w3.org/2000/svg" xmlns:xlink="http://www.w3.org/1999/xlink">
<g id="graph0" class="graph" transform="scale(1 1) rotate(0) translate(4 310)">
<title>Tree</title>
<polygon fill="white" stroke="transparent" points="-4,4 -4,-310 805.5,-310 805.5,4 -4,4"/>
<!-- 0 -->
<g id="node1" class="node">
<title>0</title>
<polygon fill="none" stroke="black" points="514.5,-306 269.5,-306 269.5,-223 514.5,-223 514.5,-306"/>
<text text-anchor="middle" x="392" y="-290.8" font-family="Helvetica,sans-Serif" font-size="14.00">Payment_of_Min_Amount &lt;= &#45;0.299</text>
<text text-anchor="middle" x="392" y="-275.8" font-family="Helvetica,sans-Serif" font-size="14.00">gini = 0.601</text>
<text text-anchor="middle" x="392" y="-260.8" font-family="Helvetica,sans-Serif" font-size="14.00">samples = 78239</text>
<text text-anchor="middle" x="392" y="-245.8" font-family="Helvetica,sans-Serif" font-size="14.00">value = [22635, 41640, 13964]</text>
<text text-anchor="middle" x="392" y="-230.8" font-family="Helvetica,sans-Serif" font-size="14.00">class = 1</text>
</g>
<!-- 1 -->
<g id="node2" class="node">
<title>1</title>
<polygon fill="none" stroke="black" points="383.5,-187 180.5,-187 180.5,-104 383.5,-104 383.5,-187"/>
<text text-anchor="middle" x="282" y="-171.8" font-family="Helvetica,sans-Serif" font-size="14.00">Credit_Mix &lt;= 0.324</text>
<text text-anchor="middle" x="282" y="-156.8" font-family="Helvetica,sans-Serif" font-size="14.00">gini = 0.601</text>
<text text-anchor="middle" x="282" y="-141.8" font-family="Helvetica,sans-Serif" font-size="14.00">samples = 27896</text>
<text text-anchor="middle" x="282" y="-126.8" font-family="Helvetica,sans-Serif" font-size="14.00">value = [3699, 13459, 10738]</text>
<text text-anchor="middle" x="282" y="-111.8" font-family="Helvetica,sans-Serif" font-size="14.00">class = 1</text>
</g>
<!-- 0&#45;&gt;1 -->
<g id="edge1" class="edge">
<title>0&#45;&gt;1</title>
<path fill="none" stroke="black" d="M353.84,-222.91C345.22,-213.74 335.99,-203.93 327.12,-194.49"/>
<polygon fill="black" stroke="black" points="329.5,-191.91 320.1,-187.02 324.4,-196.7 329.5,-191.91"/>
<text text-anchor="middle" x="319.33" y="-208.31" font-family="Helvetica,sans-Serif" font-size="14.00">True</text>
</g>
<!-- 4 -->
<g id="node5" class="node">
<title>4</title>
<polygon fill="none" stroke="black" points="604.5,-187 401.5,-187 401.5,-104 604.5,-104 604.5,-187"/>
<text text-anchor="middle" x="503" y="-171.8" font-family="Helvetica,sans-Serif" font-size="14.00">Credit_Mix &lt;= &#45;1.001</text>
<text text-anchor="middle" x="503" y="-156.8" font-family="Helvetica,sans-Serif" font-size="14.00">gini = 0.541</text>
<text text-anchor="middle" x="503" y="-141.8" font-family="Helvetica,sans-Serif" font-size="14.00">samples = 50343</text>
<text text-anchor="middle" x="503" y="-126.8" font-family="Helvetica,sans-Serif" font-size="14.00">value = [18936, 28181, 3226]</text>
<text text-anchor="middle" x="503" y="-111.8" font-family="Helvetica,sans-Serif" font-size="14.00">class = 1</text>
</g>
<!-- 0&#45;&gt;4 -->
<g id="edge4" class="edge">
<title>0&#45;&gt;4</title>
<path fill="none" stroke="black" d="M430.51,-222.91C439.21,-213.74 448.52,-203.93 457.47,-194.49"/>
<polygon fill="black" stroke="black" points="460.21,-196.68 464.56,-187.02 455.14,-191.87 460.21,-196.68"/>
<text text-anchor="middle" x="465.21" y="-208.31" font-family="Helvetica,sans-Serif" font-size="14.00">False</text>
</g>
<!-- 2 -->
<g id="node3" class="node">
<title>2</title>
<polygon fill="none" stroke="black" points="170,-68 0,-68 0,0 170,0 170,-68"/>
<text text-anchor="middle" x="85" y="-52.8" font-family="Helvetica,sans-Serif" font-size="14.00">gini = 0.24</text>
<text text-anchor="middle" x="85" y="-37.8" font-family="Helvetica,sans-Serif" font-size="14.00">samples = 5615</text>
<text text-anchor="middle" x="85" y="-22.8" font-family="Helvetica,sans-Serif" font-size="14.00">value = [347, 4865, 403]</text>
<text text-anchor="middle" x="85" y="-7.8" font-family="Helvetica,sans-Serif" font-size="14.00">class = 1</text>
</g>
<!-- 1&#45;&gt;2 -->
<g id="edge2" class="edge">
<title>1&#45;&gt;2</title>
<path fill="none" stroke="black" d="M208.92,-103.88C190.83,-93.83 171.52,-83.09 153.65,-73.16"/>
<polygon fill="black" stroke="black" points="154.89,-69.84 144.45,-68.04 151.49,-75.96 154.89,-69.84"/>
</g>
<!-- 3 -->
<g id="node4" class="node">
<title>3</title>
<polygon fill="none" stroke="black" points="383.5,-68 188.5,-68 188.5,0 383.5,0 383.5,-68"/>
<text text-anchor="middle" x="286" y="-52.8" font-family="Helvetica,sans-Serif" font-size="14.00">gini = 0.613</text>
<text text-anchor="middle" x="286" y="-37.8" font-family="Helvetica,sans-Serif" font-size="14.00">samples = 22281</text>
<text text-anchor="middle" x="286" y="-22.8" font-family="Helvetica,sans-Serif" font-size="14.00">value = [3352, 8594, 10335]</text>
<text text-anchor="middle" x="286" y="-7.8" font-family="Helvetica,sans-Serif" font-size="14.00">class = 2</text>
</g>
<!-- 1&#45;&gt;3 -->
<g id="edge3" class="edge">
<title>1&#45;&gt;3</title>
<path fill="none" stroke="black" d="M283.49,-103.73C283.79,-95.52 284.11,-86.86 284.41,-78.56"/>
<polygon fill="black" stroke="black" points="287.92,-78.42 284.78,-68.3 280.92,-78.17 287.92,-78.42"/>
</g>
<!-- 5 -->
<g id="node6" class="node">
<title>5</title>
<polygon fill="none" stroke="black" points="588.5,-68 409.5,-68 409.5,0 588.5,0 588.5,-68"/>
<text text-anchor="middle" x="499" y="-52.8" font-family="Helvetica,sans-Serif" font-size="14.00">gini = 0.491</text>
<text text-anchor="middle" x="499" y="-37.8" font-family="Helvetica,sans-Serif" font-size="14.00">samples = 14944</text>
<text text-anchor="middle" x="499" y="-22.8" font-family="Helvetica,sans-Serif" font-size="14.00">value = [8988, 5735, 221]</text>
<text text-anchor="middle" x="499" y="-7.8" font-family="Helvetica,sans-Serif" font-size="14.00">class = 0</text>
</g>
<!-- 4&#45;&gt;5 -->
<g id="edge5" class="edge">
<title>4&#45;&gt;5</title>
<path fill="none" stroke="black" d="M501.51,-103.73C501.21,-95.52 500.89,-86.86 500.59,-78.56"/>
<polygon fill="black" stroke="black" points="504.08,-78.17 500.22,-68.3 497.08,-78.42 504.08,-78.17"/>
</g>
<!-- 6 -->
<g id="node7" class="node">
<title>6</title>
<polygon fill="none" stroke="black" points="801.5,-68 606.5,-68 606.5,0 801.5,0 801.5,-68"/>
<text text-anchor="middle" x="704" y="-52.8" font-family="Helvetica,sans-Serif" font-size="14.00">gini = 0.512</text>
<text text-anchor="middle" x="704" y="-37.8" font-family="Helvetica,sans-Serif" font-size="14.00">samples = 35399</text>
<text text-anchor="middle" x="704" y="-22.8" font-family="Helvetica,sans-Serif" font-size="14.00">value = [9948, 22446, 3005]</text>
<text text-anchor="middle" x="704" y="-7.8" font-family="Helvetica,sans-Serif" font-size="14.00">class = 1</text>
</g>
<!-- 4&#45;&gt;6 -->
<g id="edge6" class="edge">
<title>4&#45;&gt;6</title>
<path fill="none" stroke="black" d="M577.56,-103.88C596.19,-93.73 616.09,-82.89 634.46,-72.88"/>
<polygon fill="black" stroke="black" points="636.24,-75.9 643.35,-68.04 632.89,-69.75 636.24,-75.9"/>
</g>
</g>
</svg>
